<svg xmlns="http://www.w3.org/2000/svg" id="google-icon" width="30.814" height="31.443" viewBox="0 0 30.814 31.443">
    <defs>
        <style>
            .cls-1{fill:#fec465}
        </style>
    </defs>
    <path id="Path_181" d="M145.643 109.975a13.473 13.473 0 0 0-.332-3.214H130.55v5.839h8.664a7.683 7.683 0 0 1-3.214 5.1l-.029.2 4.667 3.616.323.032a15.372 15.372 0 0 0 4.682-11.564" class="cls-1" transform="translate(-114.828 -93.904)"/>
    <path id="Path_182" d="M27.97 168.982a14.985 14.985 0 0 0 10.411-3.808l-4.961-3.843a9.3 9.3 0 0 1-5.45 1.572 9.465 9.465 0 0 1-8.944-6.533l-.184.016-4.853 3.756-.063.176a15.71 15.71 0 0 0 14.045 8.664" class="cls-1" transform="translate(-12.248 -137.539)"/>
    <path id="Path_183" d="M6.778 81.555a9.679 9.679 0 0 1-.524-3.109 10.171 10.171 0 0 1 .507-3.109l-.009-.208-4.914-3.817-.161.076a15.689 15.689 0 0 0 0 14.115l5.1-3.948" class="cls-1" transform="translate(0 -62.724)"/>
    <path id="Path_184" d="M27.97 6.079a8.713 8.713 0 0 1 6.079 2.341l4.437-4.332A15.105 15.105 0 0 0 27.97 0a15.71 15.71 0 0 0-14.045 8.664l5.083 3.948a9.5 9.5 0 0 1 8.962-6.533" class="cls-1" transform="translate(-12.248)"/>
</svg>
